<svg xmlns="http://www.w3.org/2000/svg" width="512" height="512" viewBox="0 0 120 120">
  <rect x="0" y="0" width="120" height="120" rx="28" fill="#0E6E66"/>
  <path d="M28 44 h64 a8 8 0 0 1 8 8 v40 a12 12 0 0 1 -12 12 H44 l-12 12 v-12 h-4 a8 8 0 0 1 -8 -8 V52 a8 8 0 0 1 8 -8 z" fill="#FBF7EF"/>
  <path d="M38 44 v-6 a22 16 0 0 1 44 0 v6" fill="none" stroke="#FBF7EF" stroke-width="7" stroke-linecap="round"/>
  <circle cx="49" cy="74" r="7" fill="#F2A93B"/>
  <circle cx="71" cy="74" r="7" fill="#0E6E66"/>
</svg>
